<?xml version="1.0" encoding="utf-8"?>
<!-- Generator: Adobe Illustrator 24.1.0, SVG Export Plug-In . SVG Version: 6.00 Build 0)  -->
<svg version="1.1" id="Layer_1" xmlns="http://www.w3.org/2000/svg" xmlns:xlink="http://www.w3.org/1999/xlink" x="0px" y="0px"
	 viewBox="0 0 32 32" style="enable-background:new 0 0 32 32;" xml:space="preserve">
<style type="text/css">
	.st0{fill:#FFFFFF;}
	.background{fill:#32004b;}
</style>
<rect class="background" x="0" y="0" width="32" height="32" rx="4" ry="4"/>
<g id="Layer_2_1_">
	<g id="Layer_1-2">
		<path class="st0" d="M26.8,20.8c-0.3,0-0.6-0.3-0.6-0.6c0,0,0,0,0,0V9.5h-3.8v0.7h0.3c0.3,0,0.6,0.3,0.6,0.6v2.9
			c-0.7-0.8-1.8-1.4-2.9-1.4c-2.3,0-4.1,2.1-4.1,4.8s1.8,4.8,4.1,4.8c1.1,0,2.1-0.5,2.9-1.4v1.1H27v-0.7H26.8z M21,20.5
			c-1.1,0-2-1.5-2-3.3s0.9-3.3,2-3.3s2,1.5,2,3.3C23,19,22.1,20.5,21,20.5L21,20.5z"/>
		<path class="st0" d="M7.8,12.5c-1.9,0-2.9,1.1-2.9,1.1v-1.1H1.1v0.8h0.2c0.4,0,0.6,0.3,0.6,0.6v6.3c0,0.3-0.3,0.6-0.6,0.6H1.1v0.7
			h4.6v-0.7H5.5c-0.3,0-0.6-0.3-0.6-0.6v-5.3c0-0.8,1.6-1.3,1.6-1.2c0,0.1-0.1,0.3,0,0.4c0,0.9,0.7,1.6,1.6,1.6
			c0.9,0,1.6-0.6,1.6-1.5C9.6,13.3,8.9,12.5,7.8,12.5z"/>
		<path class="st0" d="M15.9,20.8c-0.3,0-0.6-0.3-0.6-0.6v-5.4c0-1.4-0.7-2.3-2-2.3h-2.7v0.5h0.6c0.9,0,1.2,0.7,1.2,1.8
			c-0.3,0.2-1.3,0.6-3.6,1.6c-1.5,0.7-1.6,1.8-1.6,2.8c0,1.4,1,2.5,2.3,2.5c1.7,0,2.9-1.6,2.9-1.6v1.4h3.9v-0.7H15.9z M12.2,19.1
			c0,0-0.6,0.7-1.4,0.7c-0.7,0-1.1-0.5-1.1-1.1c0-1,0.8-1.3,2.5-2.5L12.2,19.1z"/>
		<path class="st0" d="M29.4,18.8c0.6,0,1,0.1,1.4,0.5c0.2,0.3,0.3,0.6,0.3,0.9c0,0.6-0.4,1-0.9,1.2c-0.4,0.1-0.8,0.1-1.2,0
			c-0.3-0.1-0.6-0.3-0.8-0.6c-0.2-0.3-0.2-0.7-0.1-1c0.1-0.5,0.5-0.8,1-1C29.2,18.9,29.3,18.9,29.4,18.8z"/>
	</g>
</g>
</svg>
